<svg version="1" xmlns="http://www.w3.org/2000/svg" width="2666.667" height="2666.667" viewBox="0 0 2000.000000 2000.000000"><path d="M0 1000v1000h2000V0H0v1000zM179.4 31.2c1.4 2 1.6 10.7 1.6 74 0 70.5 0 71.8-2 73.8s-3.3 2-74.2 2c-65.7 0-72.3-.1-74-1.7-1.7-1.5-1.8-5.1-1.8-74.1 0-66.1.1-72.7 1.7-74.4 1.5-1.7 5.2-1.8 74.4-1.8h72.8l1.5 2.2zm178.8-.5c1.7 1.5 1.8 5.1 1.8 74.1 0 66.1-.1 72.7-1.7 74.4-1.5 1.7-5.1 1.8-74.1 1.8-66.1 0-72.7-.1-74.4-1.7-1.7-1.5-1.8-5.1-1.8-74.1 0-66.1.1-72.7 1.7-74.4 1.5-1.7 5.1-1.8 74.1-1.8 66.1 0 72.7.1 74.4 1.7zm179 0c1.7 1.5 1.8 5.1 1.8 74 0 71 0 72.3-2 74.3s-3.3 2-74.2 2c-65.7 0-72.3-.1-74-1.7-1.7-1.5-1.8-5.1-1.8-73.7 0-63.7.2-72.4 1.6-74.4l1.5-2.2h72.6c66.2 0 72.8.1 74.5 1.7zm179 0c1.7 1.5 1.8 5.1 1.8 74.3 0 68.4-.1 72.8-1.8 74.3-1.6 1.4-9 1.6-74.2 1.6-65.1 0-72.6-.2-74.2-1.6-1.7-1.5-1.8-5.9-1.8-74.1 0-66.1.1-72.7 1.7-74.4 1.5-1.7 5.1-1.8 74.1-1.8 66.1 0 72.7.1 74.4 1.7zm179 0c1.7 1.5 1.8 5.1 1.8 74 0 69.4-.1 72.4-1.9 74.2-1.8 1.8-4.8 1.9-74.2 1.9-65.2.1-72.5 0-74.1-1.5-1.7-1.5-1.8-5.9-1.8-74.1 0-66.1.1-72.7 1.7-74.4 1.5-1.7 5.1-1.8 74.1-1.8 66.1 0 72.7.1 74.4 1.7zm179 0c1.7 1.5 1.8 5.2 1.8 74.4V178l-2.2 1.4c-2 1.3-12.4 1.5-74.6 1.3-70.4-.2-72.4-.3-73.8-2.1-1.2-1.7-1.4-13.4-1.4-74 0-65.5.1-72.1 1.7-73.8 1.5-1.7 5.1-1.8 74.1-1.8 66.1 0 72.7.1 74.4 1.7zm179 0c1.7 1.5 1.8 5.1 1.8 74.1 0 66.1-.1 72.7-1.7 74.4-1.5 1.7-5.1 1.8-74 1.8-71 0-72.3 0-74.3-2s-2-3.3-2-74.2c0-65.7.1-72.3 1.7-74 1.5-1.7 5.1-1.8 74.1-1.8 66.1 0 72.7.1 74.4 1.7zm179 0c1.7 1.5 1.8 5.1 1.8 74.1 0 66.1-.1 72.7-1.7 74.4-1.5 1.7-5.1 1.8-74.1 1.8-66.1 0-72.7-.1-74.4-1.7-1.7-1.5-1.8-5.1-1.8-74.1 0-66.1.1-72.7 1.7-74.4 1.5-1.7 5.1-1.8 74.1-1.8 66.1 0 72.7.1 74.4 1.7zm179 0c1.7 1.5 1.8 5.1 1.8 74.1 0 66.1-.1 72.7-1.7 74.4-1.5 1.7-5.1 1.8-74.1 1.8-66.1 0-72.7-.1-74.4-1.7-1.7-1.5-1.8-5.1-1.8-74.1 0-66.1.1-72.7 1.7-74.4 1.5-1.7 5.1-1.8 74.1-1.8 66.1 0 72.7.1 74.4 1.7zm179 0c1.7 1.5 1.8 5.2 1.8 74.3 0 64.9-.2 72.9-1.6 74.1-1.2 1-16.3 1.3-74.5 1.5l-72.9.3-1.6-2.4c-1.3-2.1-1.5-10.3-1-74.5.4-51.8.9-72.6 1.7-73.6 1-1.2 13.5-1.4 73.7-1.4 66.1 0 72.7.1 74.4 1.7zm179 0c1.7 1.5 1.8 5.1 1.8 74.1 0 66.1-.1 72.7-1.7 74.4-1.5 1.7-5.1 1.8-74.1 1.8-66.1 0-72.7-.1-74.4-1.7-1.7-1.5-1.8-5.1-1.8-74.1 0-66.1.1-72.7 1.7-74.4 1.5-1.7 5.1-1.8 74.1-1.8 66.1 0 72.7.1 74.4 1.7zM179.5 210.3c1.3 2.1 1.5 11.1 1.2 74.7-.4 69.6-.5 72.4-2.3 73.8-1.6 1.2-12.1 1.3-74.4.7-46.8-.5-72.9-1.1-73.8-1.7-.9-.8-1.2-16.8-1.2-73.6 0-66.1.1-72.7 1.7-74.4 1.5-1.7 5.2-1.8 74.4-1.8H178l1.5 2.3zm178.7-.6c1.7 1.5 1.8 5.1 1.8 74.1 0 66.1-.1 72.7-1.7 74.4-1.5 1.7-5.1 1.8-74.1 1.8-66.1 0-72.7-.1-74.4-1.7-1.7-1.5-1.8-5.1-1.8-74.1 0-66.1.1-72.7 1.7-74.4 1.5-1.7 5.1-1.8 74.1-1.8 66.1 0 72.7.1 74.4 1.7zm179 0c1.7 1.5 1.8 5.1 1.8 74.1 0 66.1-.1 72.7-1.7 74.4-1.5 1.7-5.1 1.8-74.1 1.8-66.1 0-72.7-.1-74.4-1.7-1.7-1.5-1.8-5.1-1.8-74.1 0-66.1.1-72.7 1.7-74.4 1.5-1.7 5.1-1.8 74.1-1.8 66.1 0 72.7.1 74.4 1.7zm179 0c1.7 1.5 1.8 5.1 1.8 74.1 0 66.1-.1 72.7-1.7 74.4-1.5 1.7-5.1 1.8-74.1 1.8-66.1 0-72.7-.1-74.4-1.7-1.7-1.5-1.8-5.1-1.8-74.1 0-66.1.1-72.7 1.7-74.4 1.5-1.7 5.1-1.8 74.1-1.8 66.1 0 72.7.1 74.4 1.7zm179 0c1.7 1.5 1.8 5.1 1.8 74.3 0 68-.1 72.8-1.7 74.2-1.6 1.3-11.7 1.5-74 1.7-71.5.2-72.2.2-74.3-1.9-2-2-2-2.9-2-74.2 0-65.7.1-72.3 1.7-74 1.5-1.7 5.1-1.8 74.1-1.8 66.1 0 72.7.1 74.4 1.7zm179 0c1.7 1.5 1.8 5.1 1.8 74.1 0 66.1-.1 72.7-1.7 74.4-1.5 1.7-5.1 1.8-74.1 1.8-66.1 0-72.7-.1-74.4-1.7-1.7-1.5-1.8-5.1-1.8-74.1 0-66.1.1-72.7 1.7-74.4 1.5-1.7 5.1-1.8 74.1-1.8 66.1 0 72.7.1 74.4 1.7zm179.2.2c1.5 1.7 1.6 7.7 1.5 73.9-.1 52.5-.4 72.5-1.3 73.6-.9 1.2-11.6 1.5-73.9 2.2-69 .6-72.8.6-74.7-1.1-2-1.8-2-3.4-2-74.3 0-66.1.1-72.7 1.7-74.4 1.5-1.7 5.1-1.8 74.3-1.8 69.5 0 72.8.1 74.4 1.9zm178.8-.2c1.7 1.5 1.8 5.1 1.8 74.3 0 71.3 0 72.7-2 74.5-1.9 1.7-5.6 1.8-74.7 1.2-67-.6-72.9-.8-74-2.3-1-1.3-1.3-17.9-1.3-73.7 0-65.8.1-72.2 1.6-73.9 1.6-1.7 5.1-1.8 74.2-1.8 66.1 0 72.7.1 74.4 1.7zm179 0c1.7 1.5 1.8 5.1 1.8 74.1 0 66.1-.1 72.7-1.7 74.4-1.5 1.7-5.1 1.8-74.1 1.8-66.1 0-72.7-.1-74.4-1.7-1.7-1.5-1.8-5.1-1.8-74.1 0-66.1.1-72.7 1.7-74.4 1.5-1.7 5.1-1.8 74.1-1.8 66.1 0 72.7.1 74.4 1.7zm179 0c1.7 1.5 1.8 5.1 1.8 74.1 0 66.1-.1 72.7-1.7 74.4-1.5 1.7-5.1 1.8-74.1 1.8-66.1 0-72.7-.1-74.4-1.7-1.7-1.5-1.8-5.1-1.8-74.1 0-66.1.1-72.7 1.7-74.4 1.5-1.7 5.1-1.8 74.1-1.8 66.1 0 72.7.1 74.4 1.7zm179 0c1.7 1.5 1.8 5.1 1.8 74.1 0 66.1-.1 72.7-1.7 74.4-1.5 1.7-5.1 1.8-74.1 1.8-66.1 0-72.7-.1-74.4-1.7-1.7-1.5-1.8-5.1-1.8-74.1 0-66.1.1-72.7 1.7-74.4 1.5-1.7 5.1-1.8 74.1-1.8 66.1 0 72.7.1 74.4 1.7zM179.5 389c1.6 1.8 1.7 6.2 1.4 74.5-.4 70.4-.5 72.7-2.4 74.1-1.6 1.2-13.5 1.4-73.9 1.4-65.5 0-72.1-.1-73.8-1.7-1.7-1.5-1.8-5.2-1.8-74.4v-72.8l2.2-1.5c2-1.4 10.7-1.6 74.4-1.6 70.3 0 72.1 0 73.9 2zm178.7-.3c1.7 1.5 1.8 5.1 1.8 74.1 0 66.1-.1 72.7-1.7 74.4-1.5 1.7-5.1 1.8-73.7 1.8-63.7 0-72.4-.2-74.4-1.6l-2.2-1.5v-72.6c0-66.2.1-72.8 1.7-74.5 1.5-1.7 5.1-1.8 74.1-1.8 66.1 0 72.7.1 74.4 1.7zm179 0c1.7 1.5 1.8 5.1 1.8 74.1 0 66.1-.1 72.7-1.7 74.4-1.5 1.7-5.1 1.8-74.1 1.8-66.1 0-72.7-.1-74.4-1.7-1.7-1.5-1.8-5.1-1.8-74.1 0-66.1.1-72.7 1.7-74.4 1.5-1.7 5.1-1.8 74.1-1.8 66.1 0 72.7.1 74.4 1.7zm179 0c1.7 1.5 1.8 5.1 1.8 74.1 0 66.1-.1 72.7-1.7 74.4-1.5 1.7-5.1 1.8-74.1 1.8-66.1 0-72.7-.1-74.4-1.7-1.7-1.5-1.8-5.1-1.8-74.1 0-66.1.1-72.7 1.7-74.4 1.5-1.7 5.1-1.8 74.1-1.8 66.1 0 72.7.1 74.4 1.7zm179.1.1c1.6 1.4 1.7 6.2 1.7 74 0 66.1-.1 72.7-1.7 74.4-1.5 1.7-5.1 1.8-74.1 1.8-66.1 0-72.7-.1-74.4-1.7-1.7-1.5-1.8-5.1-1.8-74.1 0-67 .1-72.7 1.7-74.4 1.7-1.9 4.3-1.9 74.3-1.7 62.6.2 72.7.4 74.3 1.7zm178.9-.1c1.7 1.5 1.8 5.1 1.8 74.1 0 66.1-.1 72.7-1.7 74.4-1.5 1.7-5.1 1.8-74.1 1.8-66.1 0-72.7-.1-74.4-1.7-1.7-1.5-1.8-5.1-1.8-74.1 0-66.1.1-72.7 1.7-74.4 1.5-1.7 5.1-1.8 74.1-1.8 66.1 0 72.7.1 74.4 1.7zm179.1.5c1.2 1.9 1.5 14.9 1.6 74.1.2 66.9.1 72-1.5 73.8-1.7 1.8-4.1 1.9-74.2 1.9-66.1 0-72.7-.1-74.4-1.7-1.7-1.5-1.8-5.1-1.8-74.1 0-66.1.1-72.7 1.7-74.4 1.5-1.7 5.2-1.8 74.4-1.8h72.9l1.3 2.2zm178.9-.5c1.7 1.5 1.8 5.1 1.8 74.1 0 66.1-.1 72.7-1.7 74.4-1.5 1.7-5.1 1.8-74 1.8H1286l-2.1-2.1-2.2-2.2.5-72.5c.5-68.7.6-72.6 2.4-73.9 1.4-1 15.4-1.3 73.8-1.3 65.5 0 72.1.1 73.8 1.7zm179 0c1.7 1.5 1.8 5.2 1.8 74.4v72.8l-2.2 1.5c-2 1.4-10.7 1.6-74.2 1.6-65.5 0-72.1-.1-73.8-1.7-1.7-1.5-1.8-5.1-1.8-74.1 0-66.1.1-72.7 1.7-74.4 1.5-1.7 5.1-1.8 74.1-1.8 66.1 0 72.7.1 74.4 1.7zm179 0c1.7 1.5 1.8 5.1 1.8 74.1 0 66.1-.1 72.7-1.7 74.4-1.5 1.7-5.1 1.8-74 1.8-71 0-72.3 0-74.3-2s-2-3.3-2-74.2c0-65.7.1-72.3 1.7-74 1.5-1.7 5.1-1.8 74.1-1.8 66.1 0 72.7.1 74.4 1.7zm179 0c1.7 1.5 1.8 5.1 1.8 74.1 0 66.1-.1 72.7-1.7 74.4-1.5 1.7-5.1 1.8-74.1 1.8-66.1 0-72.7-.1-74.4-1.7-1.7-1.5-1.8-5.1-1.8-74.1 0-66.1.1-72.7 1.7-74.4 1.5-1.7 5.1-1.8 74.1-1.8 66.1 0 72.7.1 74.4 1.7zm-1790 179c1.7 1.5 1.8 5.1 1.8 73.7 0 63.7-.2 72.4-1.6 74.4l-1.5 2.2h-72.6c-66.2 0-72.8-.1-74.5-1.7-1.7-1.5-1.8-5.1-1.8-74.1 0-66.1.1-72.7 1.7-74.4 1.5-1.7 5.1-1.8 74.1-1.8 66.1 0 72.7.1 74.4 1.7zm179.2.2c1.6 1.8 1.7 6.8 1.4 74.5-.2 57.8-.6 72.8-1.6 73.8s-16.1 1.4-73.8 1.7c-68.2.3-72.6.2-74.4-1.4-1.9-1.8-2-3.7-2-74.2 0-71 0-72.3 2-74.3s3.3-2 74.3-2c70 0 72.4.1 74.1 1.9zm178.8-.2c1.7 1.5 1.8 5.1 1.8 74.3 0 69.1-.1 72.8-1.8 74.3s-8.3 1.7-73.8 1.7c-63.2 0-72.3-.2-74.2-1.6l-2.2-1.5v-72.6c0-66.2.1-72.8 1.7-74.5 1.5-1.7 5.1-1.8 74.1-1.8 66.1 0 72.7.1 74.4 1.7zm179 0c1.7 1.5 1.8 5.1 1.8 74.1 0 66.1-.1 72.7-1.7 74.4-1.5 1.7-5.1 1.8-74.1 1.8-66.1 0-72.7-.1-74.4-1.7-1.7-1.5-1.8-5.1-1.8-74.1 0-66.1.1-72.7 1.7-74.4 1.5-1.7 5.1-1.8 74.1-1.8 66.1 0 72.7.1 74.4 1.7zm179 0c1.7 1.5 1.8 5.1 1.8 74.1 0 66.1-.1 72.7-1.7 74.4-1.5 1.7-5.1 1.8-74.1 1.8-66.1 0-72.7-.1-74.4-1.7-1.7-1.5-1.8-5.1-1.8-74.1 0-66.1.1-72.7 1.7-74.4 1.5-1.7 5.1-1.8 74.1-1.8 66.1 0 72.7.1 74.4 1.7zm179 0c1.7 1.5 1.8 5.1 1.8 74.1 0 66.1-.1 72.7-1.7 74.4-1.5 1.7-5.1 1.8-74.1 1.8-66.1 0-72.7-.1-74.4-1.7-1.7-1.5-1.8-5.1-1.8-73.7 0-63.7.2-72.4 1.6-74.4l1.5-2.2h72.6c66.2 0 72.8.1 74.5 1.7zm179 0c1.7 1.5 1.8 5.1 1.8 74.1 0 66.1-.1 72.7-1.7 74.4-1.5 1.7-5.1 1.8-74.1 1.8-66.1 0-72.7-.1-74.4-1.7-1.7-1.5-1.8-5.1-1.8-74.1 0-66.1.1-72.7 1.7-74.4 1.5-1.7 5.1-1.8 74.1-1.8 66.1 0 72.7.1 74.4 1.7zm179 0c1.7 1.5 1.8 5.1 1.8 74.1 0 66.1-.1 72.7-1.7 74.4-1.5 1.7-5.1 1.8-74.1 1.8-66.1 0-72.7-.1-74.4-1.7-1.7-1.5-1.8-5.1-1.8-73.7 0-63.7.2-72.4 1.6-74.4l1.5-2.2h72.6c66.2 0 72.8.1 74.5 1.7zm179 0c1.7 1.5 1.8 5.1 1.8 74.1 0 66.1-.1 72.7-1.7 74.4-1.5 1.7-5.1 1.8-74 1.8-70.2 0-72.4-.1-74.2-1.9-1.9-1.9-2-4.1-2.1-74.2 0-66.3.1-72.3 1.6-74 1.6-1.8 4.8-1.9 74.2-1.9 66.1 0 72.7.1 74.4 1.7zm179 0c1.7 1.5 1.8 5.1 1.8 74.1 0 66.1-.1 72.7-1.7 74.4-1.5 1.7-5.1 1.8-74.1 1.8-66.1 0-72.7-.1-74.4-1.7-1.7-1.5-1.8-5.1-1.8-73.7 0-63.7.2-72.4 1.6-74.4l1.5-2.2h72.6c66.2 0 72.8.1 74.5 1.7zm179 0c1.7 1.5 1.8 5.1 1.8 74.1 0 66.1-.1 72.7-1.7 74.4-1.5 1.7-5.1 1.8-74.1 1.8-66.1 0-72.7-.1-74.4-1.7-1.7-1.5-1.8-5.1-1.8-74.1 0-66.1.1-72.7 1.7-74.4 1.5-1.7 5.1-1.8 74.1-1.8 66.1 0 72.7.1 74.4 1.7zM179.4 746.9c1.5 1.7 1.6 7.7 1.5 73.7-.1 60.5-.3 72.3-1.5 74.1L178 897h-72.7c-66.2 0-72.8-.1-74.5-1.7-1.7-1.5-1.8-5.1-1.8-74.1 0-66.1.1-72.7 1.7-74.4 1.5-1.7 5.1-1.8 74.3-1.8 69.5 0 72.8.1 74.4 1.9zm179 .3c1.4 2 1.6 10.7 1.6 74.2 0 65.5-.1 72.1-1.7 73.8-1.5 1.7-5.1 1.8-74.1 1.8-66.1 0-72.7-.1-74.4-1.7-1.7-1.5-1.8-5.1-1.8-74.1 0-66.1.1-72.7 1.7-74.4 1.5-1.7 5.2-1.8 74.4-1.8h72.8l1.5 2.2zm178.8-.5c1.7 1.5 1.8 5.1 1.8 73.7 0 63.7-.2 72.4-1.6 74.4l-1.5 2.2h-72.6c-66.2 0-72.8-.1-74.5-1.7-1.7-1.5-1.8-5.1-1.8-74.1 0-66.1.1-72.7 1.7-74.4 1.5-1.7 5.1-1.8 74.1-1.8 66.1 0 72.7.1 74.4 1.7zm179.2.5c1.4 2 1.6 10.7 1.6 74 0 70.5 0 71.8-2 73.8s-3.3 2-74.2 2c-65.7 0-72.3-.1-74-1.7-1.7-1.5-1.8-5.1-1.8-74.1 0-66.1.1-72.7 1.7-74.4 1.5-1.7 5.2-1.8 74.4-1.8h72.8l1.5 2.2zm533.3 3l5.3 5.2v489l-5.2 5.3-5.2 5.3H755.7l-5.4-5.4-5.3-5.3V1000l.1-244.2 5.1-5.4 5.1-5.4h489.1l5.3 5.2zm182.5-3.5c1.7 1.5 1.8 5.1 1.8 74.1 0 66.1-.1 72.7-1.7 74.4-1.5 1.7-5.1 1.8-74.1 1.8-66.1 0-72.7-.1-74.4-1.7-1.7-1.5-1.8-5.1-1.8-74.1 0-66.1.1-72.7 1.7-74.4 1.5-1.7 5.1-1.8 74.1-1.8 66.1 0 72.7.1 74.4 1.7zm179 0c1.7 1.5 1.8 5.1 1.8 74.1 0 66.1-.1 72.7-1.7 74.4-1.5 1.7-5.1 1.8-74.1 1.8-66.1 0-72.7-.1-74.4-1.7-1.7-1.5-1.8-5.1-1.8-74.1 0-66.1.1-72.7 1.7-74.4 1.5-1.7 5.1-1.8 74.1-1.8 66.1 0 72.7.1 74.4 1.7zm179 0c1.7 1.5 1.8 5.1 1.8 74.1 0 66.1-.1 72.7-1.7 74.4-1.5 1.7-5.1 1.8-74 1.8-71 0-72.3 0-74.3-2s-2-3.3-2-74.2c0-65.7.1-72.3 1.7-74 1.5-1.7 5.1-1.8 74.1-1.8 66.1 0 72.7.1 74.4 1.7zm179 0c1.7 1.5 1.8 5.1 1.8 74.1 0 66.1-.1 72.7-1.7 74.4-1.5 1.7-5.1 1.8-74.1 1.8-66.1 0-72.7-.1-74.4-1.7-1.7-1.5-1.8-5.1-1.8-73.7 0-63.7.2-72.4 1.6-74.4l1.5-2.2h72.6c66.2 0 72.8.1 74.5 1.7zm-1790 179c1.7 1.5 1.8 5.1 1.8 74.1 0 66.1-.1 72.7-1.7 74.4-1.5 1.7-5.1 1.8-74.1 1.8-66.1 0-72.7-.1-74.4-1.7-1.7-1.5-1.8-5.1-1.8-74.1 0-66.1.1-72.7 1.7-74.4 1.5-1.7 5.1-1.8 74.1-1.8 66.1 0 72.7.1 74.4 1.7zm179 0c1.7 1.5 1.8 5.1 1.8 74.1 0 66.1-.1 72.7-1.7 74.4-1.5 1.7-5.1 1.8-74.1 1.8-66.1 0-72.7-.1-74.4-1.7-1.7-1.5-1.8-5.1-1.8-74.1 0-66.1.1-72.7 1.7-74.4 1.5-1.7 5.1-1.8 74.1-1.8 66.1 0 72.7.1 74.4 1.7zm178.4-.3c1.8 1.4 1.9 3.5 2.2 74.4l.4 73-2.3 1.6c-2.1 1.4-9.7 1.6-74.3 1.6-65.5 0-72.1-.1-73.8-1.7-1.7-1.5-1.8-5.1-1.8-74.1 0-66.1.1-72.7 1.7-74.4 1.5-1.7 5.1-1.8 73.8-1.8 60.7 0 72.4.2 74.1 1.4zm179.6.3c1.7 1.5 1.8 5.1 1.8 74.1 0 66.1-.1 72.7-1.7 74.4-1.5 1.7-5.1 1.8-74.1 1.8-66.1 0-72.7-.1-74.4-1.7-1.7-1.5-1.8-5.1-1.8-74.1 0-66.1.1-72.7 1.7-74.4 1.5-1.7 5.1-1.8 74.1-1.8 66.1 0 72.7.1 74.4 1.7zm716 0c1.7 1.5 1.8 5.1 1.8 74.1 0 66.1-.1 72.7-1.7 74.4-1.5 1.7-5 1.8-72.7 1.7-39.1-.1-72.2-.4-73.6-.8l-2.5-.7-.9-73.2c-.8-69.4-.7-73.4.9-75.2 1.8-2 3.6-2 74.3-2 66.1 0 72.7.1 74.4 1.7zm179 0c1.7 1.5 1.8 5.1 1.8 74.3 0 70.8-.1 72.7-1.9 74.5-1.9 1.6-6.4 1.7-74.5 1.4-57.6-.3-72.8-.7-73.8-1.7s-1.4-16.1-1.6-73.9c-.2-66.7-.1-72.7 1.4-74.4 1.6-1.8 4.9-1.9 74.2-1.9 66.1 0 72.7.1 74.4 1.7zm179 0c1.7 1.5 1.8 5.1 1.8 74.1 0 66.1-.1 72.7-1.7 74.4-1.5 1.7-5.1 1.8-73.8 1.8-60.7 0-72.4-.2-74.1-1.4-1.8-1.4-1.9-3.5-2.2-73.6-.3-64.2-.1-72.5 1.3-74.6l1.5-2.4h72.7c66.2 0 72.8.1 74.5 1.7zm179 0c1.7 1.5 1.8 5.1 1.8 74.1 0 66.1-.1 72.7-1.7 74.4-1.5 1.7-5.1 1.8-74 1.8-70.8 0-72.3 0-74.3-2-1.9-1.9-2-3.5-2-73.8 0-63.2.2-72 1.6-74l1.5-2.2h72.6c66.2 0 72.8.1 74.5 1.7zM179 1105c2 2 2 3.3 2 74.2 0 65.7-.1 72.3-1.7 74-1.5 1.7-5.1 1.8-73.7 1.8-63.7 0-72.4-.2-74.4-1.6l-2.2-1.5v-72.6c0-66.2.1-72.8 1.7-74.5 1.5-1.7 5.1-1.8 74-1.8 71 0 72.3 0 74.3 2zm179.2-.3c1.7 1.5 1.8 5.1 1.8 74.1 0 66.1-.1 72.7-1.7 74.4-1.5 1.7-5.1 1.8-74.1 1.8-66.1 0-72.7-.1-74.4-1.7-1.7-1.5-1.8-5.1-1.8-74.1 0-66.1.1-72.7 1.7-74.4 1.5-1.7 5.1-1.8 74.1-1.8 66.1 0 72.7.1 74.4 1.7zm178.8.3c2 2 2 3.3 2 74.2 0 65.7-.1 72.3-1.7 74-1.5 1.7-5.1 1.8-74.1 1.8-66.1 0-72.7-.1-74.4-1.7-1.7-1.5-1.8-5.1-1.8-74.1 0-66.1.1-72.7 1.7-74.4 1.5-1.7 5.1-1.8 74-1.8 71 0 72.3 0 74.3 2zm179.2-.3c1.7 1.5 1.8 5.1 1.8 74.1 0 66.1-.1 72.7-1.7 74.4-1.5 1.7-5.1 1.8-74.1 1.8-66.1 0-72.7-.1-74.4-1.7-1.7-1.5-1.8-5.1-1.8-74.1 0-66.1.1-72.7 1.7-74.4 1.5-1.7 5.1-1.8 74.1-1.8 66.1 0 72.7.1 74.4 1.7zm716 0c1.7 1.5 1.8 5.1 1.8 74.1 0 66.1-.1 72.7-1.7 74.4-1.5 1.7-5.1 1.8-74 1.8-71 0-72.3 0-74.3-2s-2-3.3-2-74.2c0-65.7.1-72.3 1.7-74 1.5-1.7 5.1-1.8 74.1-1.8 66.1 0 72.7.1 74.4 1.7zm179 0c1.7 1.5 1.8 5.1 1.8 74.1 0 66.1-.1 72.7-1.7 74.4-1.5 1.7-5.2 1.8-74.4 1.8h-72.8l-1.5-2.2c-1.4-2-1.6-10.7-1.6-74 0-70.5 0-71.8 2-73.8s3.3-2 74.2-2c65.7 0 72.3.1 74 1.7zm179 0c1.7 1.5 1.8 5.1 1.8 74.1 0 66.1-.1 72.7-1.7 74.4-1.5 1.7-5.1 1.8-74.3 1.8-68.8 0-72.8-.1-74.3-1.8-1.5-1.6-1.6-8.4-1.4-74.6.3-69.8.4-72.9 2.2-74.2 1.6-1.2 14.6-1.4 73.9-1.4 65.5 0 72.1.1 73.8 1.7zm179 0c1.7 1.5 1.8 5.1 1.8 74.1 0 66.1-.1 72.7-1.7 74.4-1.5 1.7-5.1 1.8-74.1 1.8-66.1 0-72.7-.1-74.4-1.7-1.7-1.5-1.8-5.1-1.8-74.1 0-66.1.1-72.7 1.7-74.4 1.5-1.7 5.1-1.8 74.1-1.8 66.1 0 72.7.1 74.4 1.7zM179.1 1284.1c2.1 2.1 2.1 2.2 1.6 74.6-.4 69.1-.5 72.7-2.2 74-1.5 1.1-15.1 1.3-73.9 1.3-65.5 0-72.1-.1-73.8-1.7-1.7-1.5-1.8-5.2-1.8-74.4v-72.8l2.2-1.5c2-1.4 10.7-1.6 74-1.6 71.4 0 71.8 0 73.9 2.1zm179.3.1c1.4 2 1.6 10.7 1.6 74 0 70.5 0 71.8-2 73.8s-3.3 2-74.2 2c-65.7 0-72.3-.1-74-1.7-1.7-1.5-1.8-5.1-1.8-74.1 0-66.1.1-72.7 1.7-74.4 1.5-1.7 5.2-1.8 74.4-1.8h72.8l1.5 2.2zm179.1-.2c1.7 1.9 1.8 5.4 1.1 74.2-.6 61.7-.9 72.5-2.2 73.8-1.3 1.3-10.9 1.5-74 1.5-70.7 0-72.6-.1-74-1.9-1.2-1.7-1.4-13.4-1.4-74.2v-72.3l2.2-1.5c2-1.4 10.7-1.6 74.4-1.6 70.8 0 72.1 0 73.9 2zm178.7-.3c1.7 1.5 1.8 5.1 1.8 74.1 0 66.1-.1 72.7-1.7 74.4-1.5 1.7-5.1 1.8-74 1.8-71 0-72.3 0-74.3-2s-2-3.3-2-74.2c0-65.7.1-72.3 1.7-74 1.5-1.7 5.1-1.8 74.1-1.8 66.1 0 72.7.1 74.4 1.7zm179 0c1.7 1.5 1.8 5.1 1.8 74.1 0 66.1-.1 72.7-1.7 74.4-1.5 1.7-5.1 1.8-74.1 1.8-66.1 0-72.7-.1-74.4-1.7-1.7-1.5-1.8-5.1-1.8-74.1 0-66.1.1-72.7 1.7-74.4 1.5-1.7 5.1-1.8 74.1-1.8 66.1 0 72.7.1 74.4 1.7zm179 0c1.7 1.5 1.8 5.1 1.8 74.1 0 66.1-.1 72.7-1.7 74.4-1.5 1.7-5.1 1.8-74.1 1.8-66.1 0-72.7-.1-74.4-1.7-1.7-1.5-1.8-5.1-1.8-74.1 0-66.1.1-72.7 1.7-74.4 1.5-1.7 5.1-1.8 74.1-1.8 66.1 0 72.7.1 74.4 1.7zm179 0c1.7 1.5 1.8 5.1 1.8 74.1 0 66.1-.1 72.7-1.7 74.4-1.5 1.7-5.1 1.8-74.1 1.8-66.1 0-72.7-.1-74.4-1.7-1.7-1.5-1.8-5.1-1.8-74.1 0-66.1.1-72.7 1.7-74.4 1.5-1.7 5.1-1.8 74.1-1.8 66.1 0 72.7.1 74.4 1.7zm178.8.3c2 2 2 3.3 2 74.2 0 65.7-.1 72.3-1.7 74-1.5 1.7-5.1 1.8-74 1.8-71 0-72.3 0-74.3-2s-2-3.3-2-74 0-72 2-74 3.3-2 74-2 72 0 74 2zm179.2-.3c1.7 1.5 1.8 5.1 1.8 74.3 0 69.9-.1 72.8-1.9 74.4-1.7 1.6-7.2 1.7-74.2 1.4-67.9-.2-72.4-.3-74.1-2-1.7-1.7-1.8-6-1.8-73.8 0-70.7 0-72 2-74s3.3-2 74.2-2c65.7 0 72.3.1 74 1.7zm179 0c1.7 1.5 1.8 5.1 1.8 74.1 0 66.1-.1 72.7-1.7 74.4-1.5 1.7-5.1 1.8-74.1 1.8-66.1 0-72.7-.1-74.4-1.7-1.7-1.5-1.8-5.1-1.8-74.1 0-66.1.1-72.7 1.7-74.4 1.5-1.7 5.1-1.8 74.1-1.8 66.1 0 72.7.1 74.4 1.7zm179 0c1.7 1.5 1.8 5.1 1.8 74.1 0 66.1-.1 72.7-1.7 74.4-1.5 1.7-5.1 1.8-74.1 1.8-66.1 0-72.7-.1-74.4-1.7-1.7-1.5-1.8-5.1-1.8-73.7 0-63.7.2-72.4 1.6-74.4l1.5-2.2h72.6c66.2 0 72.8.1 74.5 1.7zM178.5 1462.4c1.8 1.3 1.9 4.2 2.3 74 .4 68.5.3 72.8-1.3 74.6-1.8 2-3.6 2-74.3 2-66.1 0-72.7-.1-74.4-1.7-1.7-1.5-1.8-5.1-1.8-74.1 0-66.1.1-72.7 1.7-74.4 1.5-1.7 5.1-1.8 73.8-1.8 59.8 0 72.4.2 74 1.4zm179.4 1.2c1.2 1.1 1.4 12.5 1.5 73.3 0 67.3-.1 72.2-1.7 73.8-1.6 1.6-6.9 1.8-73.8 2.2-67.8.3-72.1.2-73.9-1.4-2-1.8-2-3.6-2-74.2 0-71.6 0-72.3 2.1-74.4 2-2 2.2-2 74.2-1.3 58.2.5 72.5.9 73.6 2zm178.3-1c1.1.3 1.8 2 2.1 5.2.2 2.6.5 35.5.6 73.1.1 62.6 0 68.6-1.5 70.3-1.6 1.7-5 1.8-74.1 1.8-70.9 0-72.3 0-74.3-2s-2-3.4-1.9-73.7c0-57.5.2-72.1 1.3-73.5 1.2-1.6 4.3-1.8 33.2-2.1 40.4-.3 112.4.2 114.6.9zm179.8.4c2 2 2 3.3 2 74.2 0 65.7-.1 72.3-1.7 74-1.5 1.7-5.1 1.8-74.1 1.8-66.1 0-72.7-.1-74.4-1.7-1.7-1.5-1.8-5.1-1.8-74.1 0-66.1.1-72.7 1.7-74.4 1.5-1.7 5.1-1.8 74-1.8 71 0 72.3 0 74.3 2zm179.2-.3c1.7 1.5 1.8 5.1 1.8 73.7 0 63.7-.2 72.4-1.6 74.4l-1.5 2.2h-72.6c-66.2 0-72.8-.1-74.5-1.7-1.7-1.5-1.8-5.2-1.8-74.4v-72.8l2.2-1.5c2-1.4 10.7-1.6 74.2-1.6 65.5 0 72.1.1 73.8 1.7zm179 0c1.7 1.5 1.8 5.1 1.8 74.1 0 66.1-.1 72.7-1.7 74.4-1.5 1.7-5.1 1.8-74.1 1.8-66.1 0-72.7-.1-74.4-1.7-1.7-1.5-1.8-5.1-1.8-74.1 0-66.1.1-72.7 1.7-74.4 1.5-1.7 5.1-1.8 74.1-1.8 66.1 0 72.7.1 74.4 1.7zm179 0c1.7 1.5 1.8 5.1 1.8 74.1 0 66.1-.1 72.7-1.7 74.4-1.5 1.7-5.1 1.8-73.8 1.8-60.7 0-72.4-.2-74.1-1.4-1.8-1.4-1.9-3.5-2.2-74.1-.3-67.5-.2-72.9 1.4-74.6 1.6-1.8 4.4-1.9 74.2-1.9 66.1 0 72.7.1 74.4 1.7zm179-.1c1.7 1.6 1.8 5 1.8 74.2 0 66.1-.1 72.7-1.7 74.4-1.5 1.7-5.1 1.8-74.3 1.8-70.5 0-72.7-.1-74.4-1.9-1.7-1.8-1.8-6.6-1.4-73.9.2-58.4.6-72.2 1.6-73.5 1.7-2.1 5.4-2.2 85.1-2.5 56.2-.2 61.6-.1 63.3 1.4zm179 .1c1.7 1.5 1.8 5.1 1.8 74.1 0 66.1-.1 72.7-1.7 74.4-1.5 1.7-5.1 1.8-74.1 1.8-66.1 0-72.7-.1-74.4-1.7-1.7-1.5-1.8-5.1-1.8-74 0-71 0-72.3 2-74.3s3.3-2 74.2-2c65.7 0 72.3.1 74 1.7zm179 0c1.7 1.5 1.8 5.1 1.8 74.1 0 66.1-.1 72.7-1.7 74.4-1.5 1.7-5.1 1.8-74.1 1.8-66.1 0-72.7-.1-74.4-1.7-1.7-1.5-1.8-5.1-1.8-74.1 0-66.1.1-72.7 1.7-74.4 1.5-1.7 5.1-1.8 74.1-1.8 66.1 0 72.7.1 74.4 1.7zm179 0c1.7 1.5 1.8 5.1 1.8 74.1 0 66.1-.1 72.7-1.7 74.4-1.5 1.7-5.1 1.8-73.8 1.8-56.1 0-72.5-.3-73.8-1.3-1.6-1.1-1.8-7-2.4-73.9-.6-69.5-.5-72.9 1.2-74.8 1.8-2 3-2 74.3-2 66.1 0 72.7.1 74.4 1.7zm-1790 178.9c1.7 1.6 1.8 5 1.8 74.2 0 66.1-.1 72.7-1.7 74.4-1.5 1.7-5.1 1.8-74.1 1.8-66.1 0-72.7-.1-74.4-1.7-1.7-1.5-1.8-5.1-1.8-73.8 0-56.1.3-72.5 1.3-73.8 1.5-2.1 4.6-2.2 86.1-2.5 55.7-.2 61.1-.1 62.8 1.4zm178.5.7c1.7 1.7 1.8 6.4 2.1 73.8.3 67.2.2 72.2-1.4 74-1.7 1.8-4.1 1.9-74.2 1.9-66.1 0-72.7-.1-74.4-1.7-1.7-1.5-1.8-5.1-1.8-74.1 0-67.7.1-72.7 1.8-74.5 1.7-1.9 3.5-1.9 73.9-1.5 67.5.3 72.4.4 74 2.1zm179.5-.6c1.7 1.5 1.8 6.3 1.8 74.1 0 66.1-.1 72.7-1.7 74.4-1.5 1.7-5.1 1.8-74.1 1.8-66.1 0-72.7-.1-74.4-1.7-1.7-1.5-1.8-5.2-1.8-74.4v-72.8l2.1-1.5c1.9-1.3 12-1.5 74.3-1.5 64.4 0 72.3.2 73.8 1.6zm179 0c1.7 1.5 1.8 5.1 1.8 74.1 0 66.1-.1 72.7-1.7 74.4-1.5 1.7-5.1 1.8-74.1 1.8-66.1 0-72.7-.1-74.4-1.7-1.7-1.5-1.8-5.1-1.8-74.1 0-66.1.1-72.7 1.7-74.4 1.5-1.7 5.1-1.8 74.1-1.8 66.1 0 72.7.1 74.4 1.7zm179 0c1.7 1.5 1.8 5.1 1.8 74.1 0 66.1-.1 72.7-1.7 74.4-1.5 1.7-5.1 1.8-74.1 1.8-66.1 0-72.7-.1-74.4-1.7-1.7-1.5-1.8-5.1-1.8-74.1 0-66.1.1-72.7 1.7-74.4 1.5-1.7 5.1-1.8 74.1-1.8 66.1 0 72.7.1 74.4 1.7zm178.8.3c2 2 2 3.3 2 74.2 0 65.7-.1 72.3-1.7 74-1.5 1.7-5.1 1.8-74.1 1.8-66.1 0-72.7-.1-74.4-1.7-1.7-1.5-1.8-5.1-1.8-74.1 0-66.1.1-72.7 1.7-74.4 1.5-1.7 5.1-1.8 74-1.8 71 0 72.3 0 74.3 2zm179.2-.3c1.7 1.5 1.8 5.1 1.8 74.1 0 66.1-.1 72.7-1.7 74.4-1.5 1.7-5.1 1.8-74.1 1.8-66.1 0-72.7-.1-74.4-1.7-1.7-1.5-1.8-5.1-1.8-73.8 0-77.2-.1-74.9 5-75.8 1.4-.2 34.2-.5 72.9-.6 64.3-.1 70.6 0 72.3 1.6zm179 0c1.7 1.5 1.8 5.1 1.8 73.7 0 63.7-.2 72.4-1.6 74.4l-1.5 2.2h-72.6c-66.2 0-72.8-.1-74.5-1.7-1.7-1.5-1.8-5.1-1.8-74.1 0-66.1.1-72.7 1.7-74.4 1.5-1.7 5.1-1.8 74.1-1.8 66.1 0 72.7.1 74.4 1.7zm179 0c1.7 1.5 1.8 5.1 1.8 74.1 0 66.1-.1 72.7-1.7 74.4-1.5 1.7-5.1 1.8-74 1.8-71 0-72.3 0-74.3-2s-2-3.3-2-74.2c0-65.7.1-72.3 1.7-74 1.5-1.7 5.1-1.8 74.1-1.8 66.1 0 72.7.1 74.4 1.7zm179.4.8c2.1 2.9 2 144.2-.1 147.2-1.4 2-2.5 2-74.1 2.2-67.2.2-72.8.1-74.5-1.5-1.8-1.6-1.9-4.5-1.9-74.2 0-67.2.1-72.7 1.7-74.4 1.7-1.9 4-1.9 74.6-1.6 71.1.3 72.9.3 74.3 2.3zm178.6-.8c1.7 1.5 1.8 5.1 1.8 74.1 0 66.1-.1 72.7-1.7 74.4-1.5 1.7-5.1 1.8-73.7 1.8-58.4-.1-72.4-.3-73.8-1.4-1.7-1.2-1.8-6-1.8-74.3 0-58.3.3-73.3 1.3-74.1 1.9-1.7 8.2-1.8 79.6-2 60.6-.2 66.6-.1 68.3 1.5zm-1790 179c1.7 1.5 1.8 5.1 1.8 74.1 0 66.1-.1 72.7-1.7 74.4-1.5 1.7-5.1 1.8-74.1 1.8-66.1 0-72.7-.1-74.4-1.7-1.7-1.5-1.8-5.1-1.8-74.1 0-66.1.1-72.7 1.7-74.4 1.5-1.7 5.1-1.8 74.1-1.8 66.1 0 72.7.1 74.4 1.7zm179 0c1.7 1.5 1.8 5.1 1.8 74.1 0 66.1-.1 72.7-1.7 74.4-1.5 1.7-5.1 1.8-74.1 1.8-66.1 0-72.7-.1-74.4-1.7-1.7-1.5-1.8-5.1-1.8-74.1 0-66.1.1-72.7 1.7-74.4 1.5-1.7 5.1-1.8 74.1-1.8 66.1 0 72.7.1 74.4 1.7zm178.8.9c1.3 1.3 1.5 10.8 1.5 73.8 0 59.8-.2 72.6-1.4 73.9-1.2 1.6-7.6 1.7-73.9 1.7-66.1 0-72.7-.1-74.4-1.7-1.7-1.5-1.8-5.1-1.8-74.1 0-67.7.1-72.7 1.8-74.5 1.7-1.9 3.1-1.9 74.2-1.3 62.3.6 72.7.9 74 2.2zm179.2-.9c1.7 1.5 1.8 5.1 1.8 74.1 0 66.1-.1 72.7-1.7 74.4-1.5 1.7-5.1 1.8-74.1 1.8-66.1 0-72.7-.1-74.4-1.7-1.7-1.5-1.8-5.1-1.8-74.1 0-66.1.1-72.7 1.7-74.4 1.5-1.7 5.1-1.8 74.1-1.8 66.1 0 72.7.1 74.4 1.7zm178.8.3c2 2 2 3.3 2 74.2 0 65.7-.1 72.3-1.7 74-1.5 1.7-5.1 1.8-74.1 1.8-66.1 0-72.7-.1-74.4-1.7-1.7-1.5-1.8-5.1-1.8-74.1 0-66.1.1-72.7 1.7-74.4 1.5-1.7 5.1-1.8 74-1.8 71 0 72.3 0 74.3 2zm178.8-.4l2.2 1.5v72.6c0 66.2-.1 72.8-1.7 74.5-1.5 1.7-5.1 1.8-74.1 1.8-66.1 0-72.7-.1-74.4-1.7-1.7-1.5-1.8-5.1-1.8-74.1 0-66.1.1-72.7 1.7-74.4 1.5-1.7 5.1-1.8 73.7-1.8 63.7 0 72.4.2 74.4 1.6zm179.4.1c1.7 1.5 1.8 5.1 1.8 74.1 0 66.1-.1 72.7-1.7 74.4-1.5 1.7-5.1 1.8-74.3 1.8-69.6 0-72.8-.1-74.4-1.9-1.5-1.7-1.6-7.4-1.4-73.8.2-59 .5-72.3 1.7-73.6 1.4-1.8 3-1.8 107.5-2.5 35-.2 39.1 0 40.8 1.5zm178.6-.1l2.2 1.5v72.6c0 66.2-.1 72.8-1.7 74.5-1.5 1.7-5.1 1.8-74.1 1.8-66.1 0-72.7-.1-74.4-1.7-1.7-1.5-1.8-5.1-1.8-74.1 0-66.1.1-72.7 1.7-74.4 1.5-1.7 5.1-1.8 73.7-1.8 63.7 0 72.4.2 74.4 1.6zm179.4.1c1.7 1.5 1.8 5.1 1.8 74.1 0 66.1-.1 72.7-1.7 74.4-1.5 1.7-5.1 1.8-74.1 1.8-66.1 0-72.7-.1-74.4-1.7-1.7-1.5-1.8-5.1-1.8-74 0-71 0-72.3 2-74.3s3.3-2 74.2-2c65.7 0 72.3.1 74 1.7zm179.3.3c1.3 1.1 1.5 10.7 1.5 73.8 0 66.1-.1 72.7-1.7 74.4-1.5 1.7-5.1 1.8-74.1 1.8-66.1 0-72.7-.1-74.4-1.7-1.7-1.5-1.8-5.1-1.8-74.1 0-66.6.1-72.7 1.7-74.4 1.6-1.8 4.4-1.9 74.5-1.5 55.9.4 73.2.8 74.3 1.7zm178.7-.3c1.7 1.5 1.8 5.1 1.8 74.1 0 66.1-.1 72.7-1.7 74.4-1.5 1.7-5.2 1.8-74.4 1.8h-72.8l-1.5-2.2c-1.4-2-1.6-10.7-1.6-74.2 0-65.5.1-72.1 1.7-73.8 1.5-1.7 5.1-1.8 74.1-1.8 66.1 0 72.7.1 74.4 1.7z"/></svg>